<?xml version="1.0" encoding="UTF-8" standalone="no"?>
<svg width="1045px" height="341px" viewBox="0 0 1045 341" version="1.1" xmlns="http://www.w3.org/2000/svg" xmlns:xlink="http://www.w3.org/1999/xlink" xmlns:sketch="http://www.bohemiancoding.com/sketch/ns">
    <!-- Generator: Sketch 3.3.3 (12072) - http://www.bohemiancoding.com/sketch -->
    <title>Group</title>
    <desc>Created with Sketch.</desc>
    <defs>
        <rect id="path-1" x="0" y="0.435509836" width="111" height="108"></rect>
    </defs>
    <g id="Page-1" stroke="none" stroke-width="1" fill="none" fill-rule="evenodd" sketch:type="MSPage">
        <g id="Group" sketch:type="MSLayerGroup">
            <path d="M842.403641,250.082967 C803.520784,250.082967 772,281.629982 772,320.545197 C772,335.302883 776.533094,349.000927 784.281721,360.320674 C787.743385,337.794756 807.193793,320.545197 830.669701,320.545197 C834.721425,320.545197 838.65324,321.059019 842.403641,322.025109 L842.403641,250.082967 Z" id="Oval-381-Copy-3" fill="#C7C5C5" sketch:type="MSShapeGroup" transform="translate(807.201821, 305.201821) scale(-1, 1) rotate(-90.000000) translate(-807.201821, -305.201821) "></path>
            <path d="M536.403641,250.082967 C497.520784,250.082967 466,281.629982 466,320.545197 C466,335.302883 470.533094,349.000927 478.281721,360.320674 C481.743385,337.794756 501.193793,320.545197 524.669701,320.545197 C528.721425,320.545197 532.65324,321.059019 536.403641,322.025109 L536.403641,250.082967 Z" id="Oval-381-Copy-4" fill="#C7C5C5" sketch:type="MSShapeGroup" transform="translate(501.201821, 305.201821) scale(-1, 1) rotate(-90.000000) translate(-501.201821, -305.201821) "></path>
            <path d="M895,270 L983.5,270 L1033,270 L1033,177 C1033,153.804041 1014.19596,135 991,135 C988.962872,135 986.959618,135.145032 985,135.425333 L985,135.425333 L985,135 L901,135 L901,33 L190,33 L190,270 L895,270 Z" id="Rectangle-1635" fill="#FAD72D" sketch:type="MSShapeGroup"></path>
            <path d="M74.110068,228.305945 C91.5627886,228.305945 123.401952,157.104795 123.401952,129.858985 C123.401952,102.613175 101.333224,80.5260813 74.110068,80.5260813 C46.8869122,80.5260813 24.818184,102.613175 24.818184,129.858985 C24.818184,157.104795 56.6573475,228.305945 74.110068,228.305945 Z" id="Oval-371-Copy-3" fill="#EAB831" sketch:type="MSShapeGroup" transform="translate(74.110068, 154.416013) rotate(-270.000000) translate(-74.110068, -154.416013) "></path>
            <path d="M224.811981,192.084536 C224.811981,161.970746 200.420229,116.747491 170.331477,116.747491 C140.242726,116.747491 115.850974,161.970746 115.850974,192.084536 L224.811981,192.084536 Z" id="Oval-364-Copy-3" fill="#C7C5C5" sketch:type="MSShapeGroup" transform="translate(170.331477, 154.416013) rotate(-270.000000) translate(-170.331477, -154.416013) "></path>
            <rect id="Rectangle-1637" fill="#C7C5C5" sketch:type="MSShapeGroup" x="1033" y="222" width="12" height="48"></rect>
            <path d="M901,60.7076559 L933.414869,60.7076559 L976,135.707656 L901,135.707656 L901,60.7076559 Z" id="Rectangle-1638" fill="#CCE0E7" sketch:type="MSShapeGroup"></path>
            <rect id="Rectangle-1639" fill="#CCE0E7" sketch:type="MSShapeGroup" x="739" y="62.4355098" width="111" height="108"></rect>
            <rect id="Rectangle-1639-Copy-2" fill="#CBDFE7" sketch:type="MSShapeGroup" x="403" y="62.4355098" width="111" height="108"></rect>
            <rect id="Rectangle-1639-Copy-3" fill="#CBDFE7" sketch:type="MSShapeGroup" x="250" y="62.4355098" width="111" height="108"></rect>
            <g id="Group-Copy" transform="translate(571.000000, 62.000000)">
                <mask id="mask-2" sketch:name="Mask" fill="white">
                    <use xlink:href="#path-1"></use>
                </mask>
                <use id="Mask" fill="#CBDFE7" sketch:type="MSShapeGroup" xlink:href="#path-1"></use>
                <g mask="url(#mask-2)" sketch:type="MSShapeGroup">
                    <g transform="translate(10.531852, 20.641477)">
                        <path d="M29.5953964,66.8698377 C29.5654138,66.8699407 29.5354189,66.8699923 29.5054118,66.8699923 C15.5405281,66.8699923 4.21975311,55.7047738 4.21975311,41.9317788 C4.21975311,28.1587838 15.5405281,16.9935654 29.5054118,16.9935654 C29.5354189,16.9935654 29.5654138,16.9936169 29.5953964,16.9937199 L62.709711,16.9935654 C76.633209,17.04156 87.9053852,28.1883786 87.9053852,41.9317788 C87.9053852,55.675179 76.633209,66.8219976 62.709711,66.8698377 L29.5953964,66.8699923 Z" id="Oval-7-Copy" stroke="none" fill="#EEBF88" fill-rule="evenodd"></path>
                        <ellipse id="Oval-1-Copy" stroke="none" fill="#FFFFFF" fill-rule="evenodd" cx="26.7498485" cy="40.2446736" rx="2.51956742" ry="2.47171428"></ellipse>
                        <ellipse id="Oval-1-Copy-2" stroke="none" fill="#FFFFFF" fill-rule="evenodd" cx="45.2866659" cy="40.2446736" rx="2.51956742" ry="2.47171428"></ellipse>
                        <path d="M32.1489215,47.3133791 C32.1489215,49.4700046 33.9215696,51.2182951 36.1082418,51.2182951 C38.2949139,51.2182951 40.067562,49.4700046 40.067562,47.3133791" id="Oval-19-Copy" stroke="#FFFFFF" stroke-width="1.2" stroke-linecap="round" fill="none" transform="translate(36.108242, 49.443333) scale(1, -1) translate(-36.108242, -49.443333) "></path>
                        <path d="M16.4711158,80.388449 C16.4709965,80.4100399 16.4709368,80.4316446 16.4709368,80.4532629 L16.471653,80.4532516 C16.5426236,86.8727772 21.8791085,92.0553307 28.4517461,92.0553307 L28.4507189,91.9929658 C28.6717093,91.9584961 28.8406062,91.7710239 28.8406062,91.5449239 C28.8406062,91.3138044 28.6641269,91.1230468 28.435925,91.0948138 L28.435925,91.0948138 L28.4358066,91.0876244 L28.4358066,91.0876244 C28.6640659,91.0594427 28.8406062,90.8686591 28.8406062,90.6374996 C28.8406062,90.4013496 28.6563609,90.2073377 28.4209518,90.1857782 L28.4208863,90.1818027 C28.6563267,90.1602732 28.8406062,89.9662472 28.8406062,89.7300753 C28.8406062,89.479497 28.633159,89.2763632 28.37726,89.2763632 C28.340158,89.2763632 28.3040744,89.2806333 28.269494,89.288699 L28.269494,89.288699 C23.3007214,89.2171358 19.2953384,85.2503153 19.298432,80.3236308 L19.2957153,80.3236308 C19.3423213,75.435609 23.4036283,71.4872285 28.4517461,71.4902679 L28.4517461,68.7215631 C21.8791123,68.7215631 16.5426298,73.9041105 16.4716531,80.3236308 L16.4709368,80.3236308 C16.4709368,80.3452499 16.4709965,80.3668552 16.4711158,80.3884468 Z" id="Oval-47-Copy" stroke="none" fill="#F4F4F4" fill-rule="evenodd"></path>
                        <path d="M76.553868,80.388449 C76.5539873,80.4100399 76.554047,80.4316446 76.554047,80.4532629 L76.5533308,80.4532516 C76.4823602,86.8727772 71.1458753,92.0553307 64.5732376,92.0553307 L64.5742649,91.9929658 C64.3532745,91.9584961 64.1843776,91.7710239 64.1843776,91.5449239 C64.1843776,91.3138044 64.3608569,91.1230468 64.5890588,91.0948138 L64.5890588,91.0948138 L64.5891772,91.0876244 L64.5891772,91.0876244 C64.3609179,91.0594427 64.1843776,90.8686591 64.1843776,90.6374996 C64.1843776,90.4013496 64.3686229,90.2073377 64.604032,90.1857782 L64.6040975,90.1818027 C64.368657,90.1602732 64.1843776,89.9662472 64.1843776,89.7300753 C64.1843776,89.479497 64.3918247,89.2763632 64.6477238,89.2763632 C64.6848258,89.2763632 64.7209093,89.2806333 64.7554898,89.288699 L64.7554898,89.288699 C69.7242624,89.2171358 73.7296454,85.2503153 73.7265518,80.3236308 L73.7292685,80.3236308 C73.6826625,75.435609 69.6213555,71.4872285 64.5732376,71.4902679 L64.5732376,68.7215631 C71.1458715,68.7215631 76.482354,73.9041105 76.5533307,80.3236308 L76.554047,80.3236308 C76.554047,80.3452499 76.5539873,80.3668552 76.553868,80.3884468 Z" id="Oval-47-Copy-2" stroke="none" fill="#F4F4F4" fill-rule="evenodd"></path>
                        <path d="M77.2532505,14.9276197 L56.2303482,14.9276197 C56.2305066,14.9269648 56.230665,14.9263098 56.2308234,14.9256549 C48.3394106,14.7569807 41.9738909,8.47892837 41.8028667,0.695949955 L41.8028667,0.695949955 C36.5368122,1.93424988 32.6209134,6.60507745 32.6209134,12.1779448 C32.6209134,12.2687959 32.6219541,12.3594074 32.6240244,12.4497681 C28.7771587,9.89088205 26.2191633,5.59107663 26.1115971,0.695949955 L26.1115971,0.695949955 C20.8455427,1.93424988 16.9296438,6.60507745 16.9296438,12.1779448 C16.9296438,12.6463463 16.9573075,13.1083754 17.0111115,13.5625296 C12.4660719,11.1556017 9.34746999,6.46839885 9.22845938,1.0524582 C3.96240491,2.29075813 0.0465060385,6.9615857 0.0465060385,12.534453 C0.0465060385,18.7849125 4.97254622,23.900643 11.2045903,24.3113504 L11.2045903,24.3113504 L11.2045903,24.3349173 L11.7404851,24.3349173 C11.8315597,24.3369349 11.9228854,24.3379491 12.0144513,24.3379491 C12.1060171,24.3379491 12.1973428,24.3369349 12.2884174,24.3349173 L66.723261,24.3349173 C66.6873995,24.6851031 66.6690312,25.0403831 66.6690312,25.3998944 C66.6690312,31.183572 71.422951,35.8721691 77.2872082,35.8721691 C77.9637372,35.8721691 78.6254887,35.8097683 79.2668683,35.6904843 L79.2668683,45.1834249 L87.9053852,45.1834249 L87.9053852,25.8363412 L87.8963309,25.8363412 C87.9023475,25.6915974 87.9053852,25.5460957 87.9053852,25.3998944 C87.9053852,19.6162168 83.1514654,14.9276197 77.2872082,14.9276197 C77.2758848,14.9276197 77.2645655,14.9276372 77.2532505,14.9276721 Z" id="Rectangle-126-Copy" stroke="none" fill="#EAB831" fill-rule="evenodd"></path>
                        <ellipse id="Oval-73-Copy" stroke="none" fill="#EAB831" fill-rule="evenodd" cx="83.5861267" cy="45.1834249" rx="4.31925843" ry="4.25990835"></ellipse>
                        <path d="M32.6548711,113.979967 L32.6548711,117.956859 L29.5953964,117.956859 L29.5953964,95.237348 L32.6214483,95.237348 L32.6214483,95.237348 L60.3982099,95.237348 L63.4295874,95.237348 L63.4295874,117.956859 L60.3701127,117.956859 L60.3701127,113.868452 C60.4073076,113.461176 60.4263071,113.048754 60.4263071,112.631974 C60.4263071,105.083784 54.1944955,98.9647678 46.5071663,98.9647678 C38.8198371,98.9647678 32.5880254,105.083784 32.5880254,112.631974 C32.5880254,113.086837 32.6106557,113.53651 32.6548711,113.979967 Z M29.5953964,66.837959 L63.4295874,66.837959 L63.4295874,95.237348 L29.5953964,95.237348 L29.5953964,66.837959 Z" id="Rectangle-127-Copy" stroke="none" fill="#F4F4F4" fill-rule="evenodd"></path>
                        <rect id="Rectangle-128-Copy" stroke="none" fill="#F4F4F4" fill-rule="evenodd" x="27.7957054" y="68.6129208" width="2.15962921" height="3.01743508"></rect>
                        <rect id="Rectangle-128-Copy-2" stroke="none" fill="#F4F4F4" fill-rule="evenodd" x="63.0696492" y="68.6129208" width="2.15962921" height="3.01743508"></rect>
                        <path d="M28.5155818,117.960222 C27.9115652,118.005539 27.4357672,118.503261 27.4357672,119.110584 C27.4357672,119.717908 27.9115652,120.21563 28.5155818,120.260947 L28.5155818,120.26431 L31.5864432,120.26431 L31.5904387,120.259693 C32.1871314,120.207156 32.6548711,119.712743 32.6548711,119.110584 C32.6548711,119.084434 32.653989,119.058487 32.6522525,119.032771 L32.6548711,119.029745 L32.6548711,117.956859 L28.5155818,117.956859 L28.5155818,117.960222 Z" id="Oval-89-Copy" stroke="none" fill="#4A4A4A" fill-rule="evenodd"></path>
                        <path d="M59.2902981,117.960222 C58.6862815,118.005539 58.2104835,118.503261 58.2104835,119.110584 C58.2104835,119.717908 58.6862815,120.21563 59.2902981,120.260947 L59.2902981,120.26431 L62.3611595,120.26431 L62.365155,120.259693 C62.9618477,120.207156 63.4295874,119.712743 63.4295874,119.110584 C63.4295874,119.084434 63.4287053,119.058487 63.4269688,119.032771 L63.4295874,119.029745 L63.4295874,117.956859 L59.2902981,117.956859 L59.2902981,117.960222 Z" id="Oval-89-Copy-2" stroke="none" fill="#4A4A4A" fill-rule="evenodd"></path>
                        <rect id="Rectangle-208-Copy-2" stroke="none" fill="#E2E2E2" fill-rule="evenodd" x="37.5149402" y="74.6938833" width="18.5086954" height="13.5725372"></rect>
                        <circle id="Oval-1251-Copy-3" stroke="#FFFFFF" stroke-width="1" fill="none" cx="41.1827222" cy="79.2907542" r="2.51318658"></circle>
                        <path d="M44.1602786,79.139991 L52.7769183,79.139991" id="Line-Copy" stroke="#FFFFFF" stroke-width="1" stroke-linecap="square" fill="none"></path>
                        <circle id="Oval-1251-Copy-4" stroke="none" fill="#E84040" fill-rule="evenodd" cx="47.645202" cy="79.2907542" r="1.79513327"></circle>
                        <circle id="Oval-1251-Copy-5" stroke="none" fill="#EAB831" fill-rule="evenodd" cx="52.6715751" cy="79.2907542" r="1.79513327"></circle>
                        <polygon id="Triangle-11-Copy" stroke="#979797" stroke-width="1" fill="none" transform="translate(46.568122, 85.035181) scale(1, -1) translate(-46.568122, -85.035181) " points="46.568122 83.2400474 48.7222819 86.8303139 44.4139621 86.8303139 "></polygon>
                        <path d="M41.2880653,79.139991 L44.1602786,76.2677778" id="Line-Copy-2" stroke="#FFFFFF" stroke-width="1" stroke-linecap="square" fill="none"></path>
                    </g>
                </g>
            </g>
            <path d="M221.149804,0.709562352 C204.468904,0.891264475 190.899112,14.0387629 190.042888,30.5495988 C190.014487,30.8324948 190,31.1088518 190,31.3781169 L190,63.7076559 L922,63.7076559 L922,63.6725706 C938.70045,62.8896411 952,49.1017866 952,32.2076559 C952,15.3135251 938.70045,1.5256706 922,0.742741176 L922,0.707655869 L221.32566,0.707655869 C221.267366,0.707655869 221.208746,0.708293131 221.149807,0.70956232 Z" id="Oval-1569" fill="#EBCB31" sketch:type="MSShapeGroup"></path>
        </g>
    </g>
</svg>