<?xml version="1.0" encoding="UTF-8" standalone="no"?>
<svg width="280px" height="286px" viewBox="0 0 280 286" version="1.1" xmlns="http://www.w3.org/2000/svg" xmlns:xlink="http://www.w3.org/1999/xlink" xmlns:sketch="http://www.bohemiancoding.com/sketch/ns">
    <!-- Generator: Sketch 3.3.3 (12072) - http://www.bohemiancoding.com/sketch -->
    <title>Porsche</title>
    <desc>Created with Sketch.</desc>
    <defs></defs>
    <g id="Page-1" stroke="none" stroke-width="1" fill="none" fill-rule="evenodd" sketch:type="MSPage">
        <g id="Artboard-79" sketch:type="MSArtboardGroup" transform="translate(-469.000000, -205.000000)">
            <g id="Porsche" sketch:type="MSLayerGroup" transform="translate(458.000000, 202.000000)">
                <g id="Group" transform="translate(149.031852, 91.137373) rotate(7.000000) translate(-149.031852, -91.137373) translate(87.531852, 7.137373)" sketch:type="MSShapeGroup">
                    <path d="M41.2161548,93.1265642 C41.1743994,93.1267077 41.1326269,93.1267795 41.0908374,93.1267795 C21.6425827,93.1267795 5.87665714,77.5774904 5.87665714,58.3964703 C5.87665714,39.2154502 21.6425827,23.6661612 41.0908374,23.6661612 C41.1326269,23.6661612 41.1743994,23.666233 41.2161548,23.6663764 L87.3329461,23.6661612 C106.723565,23.7330011 122.421809,39.2566655 122.421809,58.3964703 C122.421809,77.5362752 106.723565,93.0599396 87.3329461,93.1265642 L41.2161548,93.1267795 Z" id="Oval-7-Copy" fill="#EEBF88"></path>
                    <ellipse id="Oval-1-Copy" fill="#FFFFFF" cx="37.2532904" cy="56.0469161" rx="3.50888629" ry="3.44224342"></ellipse>
                    <ellipse id="Oval-1-Copy-2" fill="#FFFFFF" cx="63.0686682" cy="56.0469161" rx="3.50888629" ry="3.44224342"></ellipse>
                    <path d="M44.7723325,65.8911789 C44.7723325,68.8946126 47.2410183,71.3293768 50.2862967,71.3293768 C53.331575,71.3293768 55.8002608,68.8946126 55.8002608,65.8911789" id="Oval-19-Copy" stroke="#FFFFFF" stroke-width="1.2" stroke-linecap="round"></path>
                    <path d="M22.9385695,111.953316 C22.9384034,111.983385 22.9383202,112.013472 22.9383202,112.043579 L22.9393176,112.043563 C23.0381551,120.983743 30.4700336,128.201248 39.6234454,128.201248 L39.6220148,128.114396 C39.9297781,128.066391 40.1649931,127.805307 40.1649931,127.490428 C40.1649931,127.168559 39.9192184,126.902899 39.601412,126.86358 L39.601412,126.86358 L39.6012471,126.853568 L39.6012471,126.853568 C39.9191334,126.814321 40.1649931,126.548625 40.1649931,126.2267 C40.1649931,125.897825 39.9084031,125.627633 39.5805595,125.597608 L39.5804683,125.592072 C39.9083555,125.562088 40.1649931,125.291877 40.1649931,124.962972 C40.1649931,124.614003 39.8760909,124.331107 39.519712,124.331107 C39.4680417,124.331107 39.4177898,124.337054 39.3696313,124.348287 L39.3696313,124.348287 C32.4498488,124.248624 26.8717352,118.724215 26.8760435,111.863047 L26.87226,111.863047 C26.9371661,105.055722 32.5931626,99.5569933 39.6234454,99.5612261 L39.6234454,95.7053775 C30.4700389,95.7053775 23.0381639,102.922874 22.9393178,111.863047 L22.9383202,111.863047 C22.9383202,111.893154 22.9384034,111.923243 22.9385695,111.953313 Z" id="Oval-47-Copy" fill="#F4F4F4"></path>
                    <path d="M106.61307,111.953316 C106.613236,111.983385 106.61332,112.013472 106.61332,112.043579 L106.612322,112.043563 C106.513485,120.983743 99.0816063,128.201248 89.9281944,128.201248 L89.929625,128.114396 C89.6218618,128.066391 89.3866468,127.805307 89.3866468,127.490428 C89.3866468,127.168559 89.6324214,126.902899 89.9502278,126.86358 L89.9502278,126.86358 L89.9503927,126.853568 L89.9503927,126.853568 C89.6325064,126.814321 89.3866468,126.548625 89.3866468,126.2267 C89.3866468,125.897825 89.6432368,125.627633 89.9710803,125.597608 L89.9711715,125.592072 C89.6432844,125.562088 89.3866468,125.291877 89.3866468,124.962972 C89.3866468,124.614003 89.675549,124.331107 90.0319279,124.331107 C90.0835982,124.331107 90.13385,124.337054 90.1820086,124.348287 L90.1820086,124.348287 C97.101791,124.248624 102.679905,118.724215 102.675596,111.863047 L102.67938,111.863047 C102.614474,105.055722 96.9584773,99.5569933 89.9281944,99.5612261 L89.9281944,95.7053775 C99.0816009,95.7053775 106.513476,102.922874 106.612322,111.863047 L106.61332,111.863047 C106.61332,111.893154 106.613236,111.923243 106.61307,111.953313 Z" id="Oval-47-Copy-2" fill="#F4F4F4"></path>
                    <path d="M107.587068,20.7890131 L78.3094339,20.7890131 C78.3096545,20.7881011 78.3098751,20.787189 78.3100956,20.7862769 C67.320086,20.551372 58.4551179,11.8082157 58.2169403,0.969217668 L58.2169403,0.969217668 C50.8831471,2.69374134 45.4296539,9.19858924 45.4296539,16.9596666 C45.4296539,17.0861909 45.4311033,17.2123813 45.4339865,17.3382226 C40.0766326,13.774579 36.5142295,7.78643668 36.364427,0.969217668 L36.364427,0.969217668 C29.0306338,2.69374134 23.5771405,9.19858924 23.5771405,16.9596666 C23.5771405,17.611988 23.6156666,18.2554348 23.6905969,18.8879146 C17.3609281,15.5358962 13.0177939,9.00824321 12.8520533,1.46571039 C5.51826007,3.19023406 0.0647668325,9.69508197 0.0647668325,17.4561594 C0.0647668325,26.1608884 6.92503767,33.2853322 15.6041204,33.8573056 L15.6041204,33.8573056 L15.6041204,33.8901262 L16.3504366,33.8901262 C16.4772721,33.892936 16.6044571,33.8943484 16.7319767,33.8943484 C16.8594963,33.8943484 16.9866814,33.892936 17.1135168,33.8901262 L92.9224336,33.8901262 C92.8724909,34.3778139 92.8469103,34.8725962 92.8469103,35.3732711 C92.8469103,43.4279343 99.4674769,49.957529 107.63436,49.957529 C108.576531,49.957529 109.498122,49.8706264 110.391342,49.704505 L110.391342,62.9248891 L122.421809,62.9248891 L122.421809,35.9810906 L122.4092,35.9810906 C122.417578,35.7795159 122.421809,35.5768807 122.421809,35.3732711 C122.421809,27.3186078 115.801242,20.7890131 107.63436,20.7890131 C107.61859,20.7890131 107.602826,20.7890375 107.587068,20.7890861 Z" id="Rectangle-126-Copy" fill="#EAB831"></path>
                    <ellipse id="Oval-73-Copy" fill="#EAB831" cx="116.406575" cy="62.9248891" rx="6.01523365" ry="5.9325795"></ellipse>
                    <path d="M45.4769453,158.734686 L45.4769453,164.273122 L41.2161548,164.273122 L41.2161548,132.632698 L45.4303989,132.632698 L45.4303989,132.632698 L84.1138242,132.632698 L88.335485,132.632698 L88.335485,164.273122 L84.0746945,164.273122 L84.0746945,158.579384 C84.1264942,158.01219 84.1529539,157.437828 84.1529539,156.857398 C84.1529539,146.34538 75.4741949,137.823705 64.7684032,137.823705 C54.0626114,137.823705 45.3838524,146.34538 45.3838524,156.857398 C45.3838524,157.490865 45.4153686,158.117104 45.4769453,158.734686 Z M41.2161548,93.0821683 L88.335485,93.0821683 L88.335485,132.632698 L41.2161548,132.632698 L41.2161548,93.0821683 Z" id="Rectangle-127-Copy" fill="#F4F4F4"></path>
                    <rect id="Rectangle-128-Copy" fill="#F4F4F4" x="38.7098075" y="95.5540764" width="3.00761682" height="4.20224381"></rect>
                    <rect id="Rectangle-128-Copy-2" fill="#F4F4F4" x="87.8342156" y="95.5540764" width="3.00761682" height="4.20224381"></rect>
                    <path d="M39.7123464,164.277805 C38.8711601,164.340916 38.208538,165.034071 38.208538,165.879863 C38.208538,166.725654 38.8711601,167.418809 39.7123464,167.48192 L39.7123464,167.486603 L43.9889947,167.486603 L43.994559,167.480173 C44.8255455,167.407008 45.4769453,166.718461 45.4769453,165.879863 C45.4769453,165.843444 45.4757168,165.807309 45.4732984,165.771495 L45.4769453,165.767281 L45.4769453,164.273122 L39.7123464,164.273122 L39.7123464,164.277805 Z" id="Oval-89-Copy" fill="#4A4A4A"></path>
                    <path d="M82.5708861,164.277805 C81.7296998,164.340916 81.0670777,165.034071 81.0670777,165.879863 C81.0670777,166.725654 81.7296998,167.418809 82.5708861,167.48192 L82.5708861,167.486603 L86.8475344,167.486603 L86.8530987,167.480173 C87.6840853,167.407008 88.335485,166.718461 88.335485,165.879863 C88.335485,165.843444 88.3342565,165.807309 88.3318382,165.771495 L88.335485,165.767281 L88.335485,164.273122 L82.5708861,164.273122 L82.5708861,164.277805 Z" id="Oval-89-Copy-2" fill="#4A4A4A"></path>
                    <rect id="Rectangle-208-Copy-2" fill="#E2E2E2" x="52.2453412" y="104.022755" width="25.7762135" height="18.9018517"></rect>
                    <ellipse id="Oval-1251-Copy-3" stroke="#FFFFFF" cx="57.3532934" cy="110.424606" rx="3.5" ry="3.5"></ellipse>
                    <path d="M61.5,110.214646 L73.5,110.214646" id="Line-Copy" stroke="#FFFFFF" stroke-linecap="square"></path>
                    <circle id="Oval-1251-Copy-4" fill="#E84040" cx="66.3532934" cy="110.424606" r="2.5"></circle>
                    <circle id="Oval-1251-Copy-5" fill="#EAB831" cx="73.3532934" cy="110.424606" r="2.5"></circle>
                    <polygon id="Triangle-11-Copy" stroke="#979797" transform="translate(64.853293, 118.424606) scale(1, -1) translate(-64.853293, -118.424606) " points="64.8532934 115.924606 67.8532934 120.924606 61.8532934 120.924606 "></polygon>
                    <path d="M57.5,110.214646 L61.5,106.214646" id="Line-Copy-2" stroke="#FFFFFF" stroke-linecap="square"></path>
                </g>
                <g id="Group-Copy-25" transform="translate(151.000000, 199.000000) rotate(-82.000000) translate(-151.000000, -199.000000) translate(70.000000, 58.000000)" sketch:type="MSShapeGroup">
                    <path d="M81.2012213,40.5861688 C92.1860034,40.5861688 101.090929,31.6738329 101.090929,20.6799094 C101.090929,9.68598591 92.1860034,0.773650007 81.2012213,0.773650007 C70.2164391,0.773650007 61.3115137,9.68598591 61.3115137,20.6799094 C61.3115137,31.6738329 70.2164391,40.5861688 81.2012213,40.5861688 Z" id="Oval-362-Copy-4" fill="#D8D8D8"></path>
                    <path d="M36.1460377,99.1283404 L61.3115137,17.6344087 L101.090929,17.6344087 L126.256405,99.1283404 L36.1460377,99.1283404 Z" id="Rectangle-409-Copy-3" fill="#B0B0B0"></path>
                    <path d="M50.6209232,52.2539902 L61.3115137,17.6344087 L61.4791748,17.6344087 C62.750405,7.86730296 71.0957013,0.324617894 81.2012213,0.324617894 C91.3067412,0.324617894 99.6520375,7.86730296 100.923268,17.6344087 L101.090929,17.6344087 L111.781519,52.2539902 L50.6209232,52.2539902 Z" id="Oval-362-Copy-5" fill="#000000"></path>
                    <path d="M31.9093372,176.884484 C14.7157651,176.884484 0.77762095,190.834227 0.77762095,208.042107 C0.77762095,214.567794 2.78210512,220.624918 6.20846309,225.630386 C7.7391726,215.669673 16.3399292,208.042107 26.7207178,208.042107 C28.5123459,208.042107 30.2509511,208.269314 31.9093372,208.696508 L31.9093372,176.884484 Z" id="Oval-381-Copy" fill="#D8D8D8"></path>
                    <path d="M161.624822,176.884484 C144.431249,176.884484 130.493105,190.834227 130.493105,208.042107 C130.493105,214.567794 132.497589,220.624918 135.923947,225.630386 C137.454657,215.669673 146.055414,208.042107 156.436202,208.042107 C158.22783,208.042107 159.966435,208.269314 161.624822,208.696508 L161.624822,176.884484 Z" id="Oval-381-Copy-2" fill="#D8D8D8" transform="translate(146.058963, 201.257435) scale(-1, 1) translate(-146.058963, -201.257435) "></path>
                    <ellipse id="Oval-363-Copy-2" fill="#B0B0B0" cx="81.2012213" cy="118.896685" rx="49.2918841" ry="49.3329037"></ellipse>
                    <rect id="Rectangle-409-Copy-4" fill="#B0B0B0" x="31.9093372" y="119.762174" width="98.5837681" height="98.6658074"></rect>
                    <path d="M79.4716815,281.961938 C85.289255,281.961938 95.9023095,258.228221 95.9023095,249.146284 C95.9023095,240.064348 88.5460668,232.701983 79.4716815,232.701983 C70.3972962,232.701983 63.0410534,240.064348 63.0410534,249.146284 C63.0410534,258.228221 73.654108,281.961938 79.4716815,281.961938 Z" id="Oval-371-Copy-2" fill="#EAB831"></path>
                    <path d="M97.6318493,241.796199 C97.6318493,231.758269 89.5012652,216.683851 79.4716815,216.683851 C69.4420977,216.683851 61.3115137,231.758269 61.3115137,241.796199 L97.6318493,241.796199 Z" id="Oval-364-Copy-2" fill="#000000"></path>
                    <ellipse id="Oval-365-Copy-2" fill="#B0B0B0" cx="81.2012213" cy="218.427982" rx="49.2918841" ry="5.19293723"></ellipse>
                    <ellipse id="Oval-372-Copy-4" fill="#D8D8D8" cx="81.2012213" cy="99.1283404" rx="17.2953979" ry="17.3097908"></ellipse>
                    <ellipse id="Oval-372-Copy-5" fill="#000000" cx="81.2012213" cy="99.1283404" rx="13.8363183" ry="13.8478326"></ellipse>
                </g>
                <path d="M133.888158,217.804371 C131.664485,217.804371 129.861842,219.606152 129.861842,221.828761 C129.861842,224.05137 131.664485,225.853151 133.888158,225.853151 L168.111842,225.853151 C170.335515,225.853151 172.138158,224.05137 172.138158,221.828761 C172.138158,219.606152 170.335515,217.804371 168.111842,217.804371 L133.888158,217.804371 Z" id="Oval-367-Copy-6" fill="#4F4F4F" sketch:type="MSShapeGroup" transform="translate(151.000000, 221.828761) rotate(7.000000) translate(-151.000000, -221.828761) "></path>
                <path d="M136.175182,230.945344 C133.951509,230.945344 132.148866,232.747124 132.148866,234.969734 C132.148866,237.192343 133.951509,238.994124 136.175182,238.994124 L170.398866,238.994124 C172.622539,238.994124 174.425182,237.192343 174.425182,234.969734 C174.425182,232.747124 172.622539,230.945344 170.398866,230.945344 L136.175182,230.945344 Z" id="Oval-367-Copy-7" fill="#4F4F4F" sketch:type="MSShapeGroup" transform="translate(153.287024, 234.969734) rotate(7.000000) translate(-153.287024, -234.969734) "></path>
                <g id="Group" transform="translate(204.500000, 232.000000) rotate(8.000000) translate(-204.500000, -232.000000) translate(195.000000, 219.000000)" sketch:type="MSShapeGroup">
                    <path d="M18.8256881,2.44791539 L18.8256881,13.6363636 C18.8256881,19.0587957 12.7091683,25.8850223 9.62261427,25.8850223 C6.53606023,25.8850223 0,19.0587957 0,13.6363636 L0,2.36363636 C0,1.45989768 4.25329488,0.0649893501 9.5,0.0649893501 C14.7467051,0.0649893501 18.8376039,1.45989777 18.8376039,2.36363645 C18.8376039,2.39190255 18.833602,2.42000125 18.8256881,2.44791539 Z" id="Rectangle-1602" fill="#F6D03F"></path>
                    <rect id="Rectangle-1603" fill="#A7012B" x="11.3302752" y="4.72727273" width="6.44954128" height="2.36363636"></rect>
                    <rect id="Rectangle-1603-Copy" fill="#000000" x="11.3302752" y="8" width="6.44954128" height="2.36363636"></rect>
                    <rect id="Rectangle-1603-Copy-2" fill="#000000" x="1.91743119" y="14" width="6.44954128" height="2.36363636"></rect>
                    <rect id="Rectangle-1603-Copy-3" fill="#A7012B" x="3.13761468" y="17.8181818" width="5.2293578" height="2.36363636"></rect>
                </g>
                <g id="Rectangle-130-Copy-+-Path-Copy-+-Oval-89-Copy-3" transform="translate(153.287024, 158.046848) rotate(6.000000) translate(-153.287024, -158.046848) translate(138.287024, 140.046848)" sketch:type="MSShapeGroup">
                    <rect id="Rectangle-130-Copy" fill="#F4F4F4" x="25.0746945" y="0.632698248" width="4.2607905" height="31.640424"></rect>
                    <path d="M0.739306064,6.47053082 C0.0010917167,3.3927599 1.44553706,0.632698248 5.13226966,0.632698248 L25.1529539,0.632698248 L25.1529539,24.8573979 C25.1529539,14.3453797 16.4741949,5.82370531 5.76840318,5.82370531 C4.029021,5.82370531 2.34314614,6.04865085 0.739306064,6.47053082 Z" id="Path-Copy" fill="#F4F4F4"></path>
                    <path d="M23.5708861,32.2778052 C22.7296998,32.3409161 22.0670777,33.0340708 22.0670777,33.8798625 C22.0670777,34.7256543 22.7296998,35.4188089 23.5708861,35.4819198 L23.5708861,35.4866028 L27.8475344,35.4866028 L27.8530987,35.4801733 C28.6840853,35.4070083 29.335485,34.7184614 29.335485,33.8798625 C29.335485,33.8434444 29.3342565,33.8073092 29.3318382,33.7714951 L29.335485,33.7672812 L29.335485,32.2731222 L23.5708861,32.2731222 L23.5708861,32.2778052 Z" id="Oval-89-Copy-3" fill="#4A4A4A"></path>
                </g>
            </g>
        </g>
    </g>
</svg>