<?xml version="1.0" encoding="UTF-8" standalone="no"?>
<svg width="1440px" height="847px" viewBox="0 0 1440 847" version="1.1" xmlns="http://www.w3.org/2000/svg" xmlns:xlink="http://www.w3.org/1999/xlink" xmlns:sketch="http://www.bohemiancoding.com/sketch/ns">
    <!-- Generator: Sketch 3.3.3 (12072) - http://www.bohemiancoding.com/sketch -->
    <title>Artboard Copy 11</title>
    <desc>Created with Sketch.</desc>
    <defs></defs>
    <g id="Page-1" stroke="none" stroke-width="1" fill="none" fill-rule="evenodd" sketch:type="MSPage">
        <rect id="Rectangle-1657" fill="#FFFFFF" sketch:type="MSShapeGroup" x="0" y="0" width="1440" height="847"></rect>
        <g id="Artboard-Copy-11" sketch:type="MSArtboardGroup" stroke="#000000" stroke-width="1.6" stroke-linecap="square">
            <path d="M978.194444,42.8 L998.805556,42.8" id="Line" sketch:type="MSShapeGroup" transform="translate(988.500000, 42.800000) rotate(-315.000000) translate(-988.500000, -42.800000) "></path>
            <path d="M988,33 L988,54" id="Line-Copy" sketch:type="MSShapeGroup" transform="translate(988.800000, 43.500000) rotate(-315.000000) translate(-988.800000, -43.500000) "></path>
            <g id="Line-+-Line-Copy" sketch:type="MSLayerGroup" transform="translate(1187.000000, 276.000000)">
                <path d="M-1.80555556,8.8 L18.8055556,8.8" id="Line" sketch:type="MSShapeGroup" transform="translate(8.500000, 8.800000) rotate(-315.000000) translate(-8.500000, -8.800000) "></path>
                <path d="M8,-1 L8,20" id="Line-Copy" sketch:type="MSShapeGroup" transform="translate(8.800000, 9.500000) rotate(-315.000000) translate(-8.800000, -9.500000) "></path>
            </g>
            <path d="M1373.19444,102.8 L1393.80556,102.8" id="Line" sketch:type="MSShapeGroup" transform="translate(1383.500000, 102.800000) rotate(-315.000000) translate(-1383.500000, -102.800000) "></path>
            <path d="M1383,93 L1383,114" id="Line-Copy" sketch:type="MSShapeGroup" transform="translate(1383.800000, 103.500000) rotate(-315.000000) translate(-1383.800000, -103.500000) "></path>
            <path d="M1335.19444,811.8 L1355.80556,811.8" id="Line" sketch:type="MSShapeGroup" transform="translate(1345.500000, 811.800000) rotate(-315.000000) translate(-1345.500000, -811.800000) "></path>
            <path d="M1345,802 L1345,823" id="Line-Copy" sketch:type="MSShapeGroup" transform="translate(1345.800000, 812.500000) rotate(-315.000000) translate(-1345.800000, -812.500000) "></path>
            <g id="Line-+-Line-Copy-4" sketch:type="MSLayerGroup" transform="translate(736.000000, 178.000000)">
                <path d="M-1.80555556,8.8 L18.8055556,8.8" id="Line" sketch:type="MSShapeGroup" transform="translate(8.500000, 8.800000) rotate(-315.000000) translate(-8.500000, -8.800000) "></path>
                <path d="M8,-1 L8,20" id="Line-Copy" sketch:type="MSShapeGroup" transform="translate(8.800000, 9.500000) rotate(-315.000000) translate(-8.800000, -9.500000) "></path>
            </g>
            <g id="Line-+-Line-Copy-6" sketch:type="MSLayerGroup" transform="translate(893.000000, 406.000000)">
                <path d="M-1.80555556,8.8 L18.8055556,8.8" id="Line" sketch:type="MSShapeGroup" transform="translate(8.500000, 8.800000) rotate(-315.000000) translate(-8.500000, -8.800000) "></path>
                <path d="M8,-1 L8,20" id="Line-Copy" sketch:type="MSShapeGroup" transform="translate(8.800000, 9.500000) rotate(-315.000000) translate(-8.800000, -9.500000) "></path>
            </g>
            <g id="Line-+-Line-Copy-5" sketch:type="MSLayerGroup" transform="translate(753.000000, 700.000000)">
                <path d="M-1.80555556,8.8 L18.8055556,8.8" id="Line" sketch:type="MSShapeGroup" transform="translate(8.500000, 8.800000) rotate(-315.000000) translate(-8.500000, -8.800000) "></path>
                <path d="M8,-1 L8,20" id="Line-Copy" sketch:type="MSShapeGroup" transform="translate(8.800000, 9.500000) rotate(-315.000000) translate(-8.800000, -9.500000) "></path>
            </g>
        </g>
    </g>
</svg>